<svg width="1440" height="308" fill="none" xmlns="http://www.w3.org/2000/svg"><mask id="a" style="mask-type:alpha" maskUnits="userSpaceOnUse" x="0" y="0" width="1440" height="308"><rect width="1440" height="308" rx="5" fill="#78C0DE"/></mask><g mask="url(#a)"><rect width="1444" height="308" rx="5" fill="#78C0DE"/><g opacity=".1" fill="#fff"><path d="M1348.87 201.397c-21.66-11.209-47.19-10.628-68.29 1.557-21.11 12.185-34.38 34.005-35.5 58.365l-2.7 58.703c-.45 9.739 2.19 19.167 7.63 27.26 5.45 8.094 13.18 14.092 22.37 17.352 9.2 3.252 18.98 3.454 28.3.585 9.31-2.868 17.28-8.542 23.05-16.405l.38-.529c14.61-19.613 36.88-32.366 61.21-35.028 6.27-.687 12.21-2.634 17.56-5.723a45.004 45.004 0 0 0 8.16-6.034c7.15-6.632 11.86-15.205 13.65-24.795 1.77-9.587.45-19.287-3.84-28.052-4.29-8.764-11.13-15.764-19.79-20.248l-52.19-27.008ZM1224.78 271.589c6.32-7.814 8.72-17.925 6.74-28.472-1.88-10.037-7.56-19.316-15.99-26.129-8.43-6.807-18.7-10.408-28.91-10.145-10.73.279-20.12 4.737-26.43 12.549-12.7 15.699-8.55 40.186 9.26 54.595 14.19 11.457 32.83 13.104 46.24 5.362a32.66 32.66 0 0 0 9.09-7.76ZM1258.19 207.535c20.7-11.952 26.74-40.386 13.46-63.384-13.28-23.004-40.92-31.994-61.63-20.042-20.7 11.951-26.73 40.387-13.45 63.391 13.28 22.998 40.92 31.986 61.62 20.035ZM1328.47 181.57v-.001a34.366 34.366 0 0 0 10.41-3.935c14.85-8.571 23-27.862 18.82-47.857-2.41-11.511-8.52-21.62-17.22-28.464-9.1-7.166-19.91-9.944-30.43-7.821-10.52 2.124-19.34 8.862-24.83 18.97-5.24 9.657-6.8 21.315-4.39 32.824 5.08 24.279 26.45 40.556 47.64 36.284ZM1403.85 130.883l-.01-.002c-20.09-2.216-38.6 14.459-41.26 37.179-2.64 22.721 11.54 43.025 31.62 45.261 7.32.817 14.44-.879 20.65-4.467 10.83-6.252 18.93-18.253 20.62-32.707 2.65-22.72-11.54-43.025-31.62-45.264Z"/></g><g opacity=".1" fill="#fff"><path d="M208.094 270.896c-4.256-13.386-14.89-23.547-28.448-27.18-13.557-3.633-27.847-.15-38.225 9.315l-25.009 22.806a25.81 25.81 0 0 0-7.992 14.211 25.813 25.813 0 0 0 2.044 16.178 25.782 25.782 0 0 0 11.284 11.761 25.744 25.744 0 0 0 16.07 2.707l.372-.058a50.964 50.964 0 0 1 39.191 10.659 25.758 25.758 0 0 0 15.266 5.691 25.774 25.774 0 0 0 15.654-4.543 25.806 25.806 0 0 0 9.863-12.986 25.816 25.816 0 0 0 .186-16.307l-10.256-32.254ZM128.97 248.944c5.759-.605 10.852-3.747 14.342-8.848 3.322-4.853 4.789-10.945 4.13-17.154-.662-6.205-3.377-11.853-7.644-15.906-4.483-4.255-10.122-6.264-15.873-5.653-11.568 1.22-19.852 12.882-18.466 26.004 1.116 10.448 8.035 18.708 16.649 21.017 2.2.589 4.51.79 6.862.54ZM168.664 236.465c13.299 3.564 27.339-5.557 31.297-20.331 3.96-14.777-3.638-29.698-16.937-33.261-13.297-3.563-27.336 5.56-31.296 20.337-3.959 14.774 3.639 29.692 16.936 33.255ZM207.862 254.514h.001a19.803 19.803 0 0 0 5.84 2.636c9.537 2.555 20.715-1.98 27.154-11.827 3.708-5.668 5.335-12.276 4.58-18.605-.789-6.626-4.058-12.157-9.207-15.578-5.151-3.42-11.485-4.266-17.837-2.384-6.068 1.797-11.45 5.91-15.156 11.579-7.818 11.957-5.744 27.29 4.625 34.179ZM259.203 264.57l-.002-.005c-7.281-9.085-21.61-9.832-31.946-1.662-10.33 8.177-12.821 22.223-5.555 31.31 2.649 3.316 6.238 5.523 10.23 6.593 6.957 1.864 15.141.273 21.719-4.923 10.328-8.177 12.821-22.223 5.554-31.313Z"/></g><g opacity=".1" fill="#fff"><path d="M39.784 178.463c5.021-9.273 4.977-20.315-.12-29.537-5.097-9.223-14.422-15.135-24.945-15.817l-25.355-1.644a19.38 19.38 0 0 0-11.847 3.08 19.377 19.377 0 0 0-7.682 9.53 19.353 19.353 0 0 0-.483 12.227 19.334 19.334 0 0 0 6.906 10.099l.226.17A38.26 38.26 0 0 1-8.87 193.313a19.352 19.352 0 0 0 4.874 11.218 19.347 19.347 0 0 0 10.61 6.098c4.129.847 8.333.352 12.157-1.431a19.375 19.375 0 0 0 8.914-8.392l12.098-22.343ZM10.445 124.248c3.326 2.798 7.678 3.916 12.254 3.146 4.354-.731 8.411-3.111 11.425-6.701 3.01-3.59 4.65-7.999 4.62-12.417-.034-4.64-1.885-8.735-5.211-11.527-6.684-5.619-17.304-4.024-23.677 3.559-5.068 6.045-5.93 14.088-2.692 19.948a14.105 14.105 0 0 0 3.28 3.992ZM37.865 139.211c4.999 9.046 17.242 11.888 27.292 6.334 10.052-5.556 14.163-17.435 9.163-26.481-4.998-9.045-17.243-11.885-27.295-6.33-10.05 5.554-14.16 17.432-9.16 26.477ZM48.522 169.805v.001c.297 1.622.849 3.14 1.617 4.53 3.585 6.488 11.859 10.169 20.537 8.523 4.995-.948 9.415-3.509 12.444-7.214 3.172-3.877 4.46-8.526 3.628-13.091-.833-4.567-3.675-8.432-8-10.886-4.133-2.345-9.16-3.113-14.154-2.164-10.538 2-17.748 11.107-16.072 20.301ZM69.824 202.802l.001-.004c1.12-8.668-5.938-16.805-15.739-18.138-9.8-1.327-18.693 4.642-19.822 13.303-.413 3.159.262 6.249 1.763 8.964 2.615 4.733 7.738 8.329 13.973 9.18 9.8 1.326 18.694-4.642 19.824-13.305Z"/></g><g opacity=".1" fill="#fff"><path d="M352.683 189.348a10.51 10.51 0 0 0-10.104-.733 10.51 10.51 0 0 0-6.062 8.116l-1.227 8.628a6.65 6.65 0 0 0 .743 4.131 6.65 6.65 0 0 0 3.058 2.877 6.634 6.634 0 0 0 4.168.485 6.625 6.625 0 0 0 3.635-2.097l.064-.072a13.122 13.122 0 0 1 9.528-4.309 6.629 6.629 0 0 0 3.964-1.373 6.63 6.63 0 0 0 2.363-3.468 6.643 6.643 0 0 0-.17-4.195 6.648 6.648 0 0 0-2.637-3.268l-7.323-4.722ZM333.375 197.961c1.044-1.065 1.54-2.523 1.397-4.108-.136-1.508-.844-2.958-1.992-4.083-1.149-1.123-2.614-1.8-4.125-1.905-1.588-.11-3.037.416-4.079 1.48-2.096 2.138-1.829 5.812.597 8.19 1.935 1.891 4.662 2.397 6.751 1.443a4.845 4.845 0 0 0 1.451-1.017ZM339.21 188.976c3.224-1.473 4.517-5.585 2.881-9.167-1.637-3.583-5.591-5.3-8.815-3.827-3.225 1.472-4.516 5.585-2.88 9.168 1.636 3.582 5.59 5.299 8.814 3.826ZM349.951 186.133a5.11 5.11 0 0 0 1.592-.434c2.312-1.056 3.788-3.789 3.452-6.8-.193-1.733-.953-3.311-2.141-4.444-1.242-1.186-2.798-1.749-4.381-1.584-1.584.166-2.98 1.036-3.932 2.451-.91 1.352-1.305 3.051-1.111 4.783.408 3.656 3.333 6.36 6.521 6.028ZM361.793 179.713h-.002c-2.934-.61-5.902 1.59-6.615 4.907-.71 3.317 1.098 6.514 4.03 7.127a4.98 4.98 0 0 0 3.112-.369c1.687-.77 3.051-2.427 3.505-4.537.71-3.317-1.097-6.514-4.03-7.128Z"/></g><g opacity=".05" fill="#fff"><path d="M360.835 162.962a10.508 10.508 0 0 0-5.264-8.656 10.505 10.505 0 0 0-10.127-.23l-7.739 4.005a6.646 6.646 0 0 0-2.935 3.002 6.644 6.644 0 0 0-.57 4.159 6.638 6.638 0 0 0 2.023 3.677 6.624 6.624 0 0 0 3.816 1.744l.097.01a13.125 13.125 0 0 1 9.036 5.263 6.632 6.632 0 0 0 3.417 2.432 6.635 6.635 0 0 0 4.196-.086 6.641 6.641 0 0 0 3.318-2.573 6.638 6.638 0 0 0 1.133-4.043l-.401-8.704ZM342.62 152.229c1.472.234 2.949-.208 4.156-1.244 1.15-.986 1.921-2.403 2.171-3.991.248-1.588-.05-3.173-.841-4.465-.832-1.358-2.1-2.233-3.571-2.464-2.959-.468-5.796 1.881-6.326 5.236-.418 2.673.752 5.189 2.741 6.337a4.81 4.81 0 0 0 1.67.591ZM353.323 151.771c3.07 1.773 7.17.44 9.139-2.97 1.969-3.412 1.074-7.629-1.996-9.401-3.07-1.772-7.169-.439-9.139 2.972-1.969 3.411-1.073 7.627 1.996 9.399ZM361.869 158.872h.001c.374.424.805.772 1.276 1.044 2.202 1.272 5.284.888 7.542-1.131 1.299-1.163 2.144-2.698 2.378-4.322.246-1.701-.199-3.294-1.251-4.488-1.053-1.194-2.572-1.826-4.277-1.782-1.629.043-3.242.707-4.541 1.87-2.742 2.453-3.247 6.405-1.128 8.809ZM373.968 164.794l-.001-.001c-1.205-2.745-4.719-3.886-7.834-2.543-3.114 1.346-4.669 4.673-3.468 7.417.438 1.001 1.184 1.789 2.105 2.321 1.606.927 3.747 1.077 5.729.223 3.114-1.345 4.67-4.672 3.469-7.417Z"/></g><g opacity=".05" fill="#fff"><path d="M627.895 50.723a10.51 10.51 0 0 0-2.844-9.722 10.506 10.506 0 0 0-9.722-2.844l-8.513 1.866a6.644 6.644 0 0 0-3.611 2.14 6.642 6.642 0 0 0-1.627 3.87 6.632 6.632 0 0 0 1.002 4.075 6.626 6.626 0 0 0 3.235 2.672l.09.035a13.121 13.121 0 0 1 7.366 7.422 6.659 6.659 0 0 0 2.672 3.234 6.634 6.634 0 0 0 4.075 1.002 6.642 6.642 0 0 0 3.871-1.626 6.646 6.646 0 0 0 2.141-3.612l1.865-8.512ZM613.078 35.642c1.362.607 2.903.562 4.338-.126 1.365-.655 2.476-1.824 3.129-3.293.651-1.47.773-3.078.343-4.531-.452-1.526-1.451-2.7-2.812-3.304-2.736-1.217-6.084.317-7.465 3.421-1.096 2.473-.617 5.206 1.007 6.83.415.414.904.756 1.46 1.003ZM623.536 37.97c2.506 2.507 6.811 2.28 9.595-.504 2.786-2.785 3.012-7.09.506-9.597-2.506-2.506-6.811-2.28-9.597.506-2.784 2.784-3.011 7.089-.504 9.595ZM629.953 47.04c.252.507.578.955.963 1.34 1.797 1.798 4.874 2.225 7.577.859 1.557-.787 2.77-2.05 3.416-3.56.677-1.578.661-3.232-.047-4.658-.708-1.426-2.012-2.43-3.67-2.828-1.585-.38-3.314-.156-4.87.631-3.283 1.66-4.794 5.346-3.369 8.217ZM640.106 55.892v-.001c-.454-2.963-3.553-4.975-6.909-4.483-3.356.493-5.72 3.304-5.27 6.266a4.984 4.984 0 0 0 1.433 2.787c1.311 1.311 3.341 2.01 5.476 1.698 3.356-.493 5.72-3.305 5.27-6.267Z"/></g><g opacity=".05" fill="#fff"><path d="M621.089 291.529c-4.931-15.508-17.251-27.281-32.959-31.49-15.707-4.208-32.263-.173-44.286 10.793l-28.975 26.422a29.906 29.906 0 0 0-9.26 16.465 29.91 29.91 0 0 0 2.368 18.743 29.871 29.871 0 0 0 13.074 13.625 29.825 29.825 0 0 0 18.618 3.137l.431-.068c16.147-2.362 32.671 2.127 45.405 12.35a29.884 29.884 0 0 0 10.99 5.589c2.165.58 4.409.918 6.698 1.004a29.86 29.86 0 0 0 18.136-5.263 29.89 29.89 0 0 0 11.426-15.046 29.905 29.905 0 0 0 .216-18.892l-11.882-37.369ZM529.418 266.096c6.672-.701 12.573-4.341 16.617-10.251 3.848-5.623 5.548-12.681 4.784-19.874-.767-7.189-3.912-13.733-8.856-18.428-5.193-4.931-11.727-7.258-18.39-6.55-13.402 1.413-22.999 14.925-21.394 30.128 1.293 12.104 9.309 21.675 19.289 24.349 2.549.683 5.226.916 7.95.626ZM575.407 251.639c15.407 4.128 31.673-6.438 36.26-23.555 4.587-17.12-4.216-34.407-19.623-38.536-15.406-4.128-31.672 6.442-36.259 23.563-4.587 17.116 4.216 34.4 19.622 38.528ZM620.821 272.548l.002.001a22.957 22.957 0 0 0 6.766 3.053c11.05 2.961 23.999-2.294 31.46-13.702 4.296-6.567 6.181-14.223 5.306-21.555-.914-7.677-4.702-14.086-10.667-18.048-5.968-3.963-13.306-4.943-20.665-2.763-7.031 2.083-13.267 6.848-17.56 13.415-9.058 13.854-6.654 31.618 5.358 39.599ZM680.304 284.2l-.003-.006c-8.435-10.526-25.037-11.392-37.012-1.926-11.968 9.474-14.854 25.748-6.436 36.276 3.07 3.841 7.227 6.398 11.852 7.637 8.06 2.16 17.542.317 25.163-5.703 11.967-9.474 14.854-25.747 6.436-36.278Z"/></g><g opacity=".1" fill="#fff"><path d="M1362.38 6.108c.82 7.317 5.24 13.631 11.84 16.89a21.382 21.382 0 0 0 20.6-.867l15.2-9.158a13.52 13.52 0 0 0 5.56-6.485c1.12-2.723 1.33-5.67.61-8.525a13.49 13.49 0 0 0-4.59-7.203 13.486 13.486 0 0 0-7.98-3.04l-.2-.009a26.707 26.707 0 0 1-19.05-9.5 13.595 13.595 0 0 0-4.38-3.452 13.73 13.73 0 0 0-2.89-1.039c-2.86-.682-5.8-.43-8.51.73a13.487 13.487 0 0 0-6.4 5.663 13.516 13.516 0 0 0-1.77 8.363l1.96 17.632ZM1400.8 25.509c-3.02-.28-5.96.812-8.28 3.076-2.2 2.154-3.58 5.135-3.88 8.394-.3 3.258.52 6.44 2.3 8.96 1.87 2.648 4.56 4.26 7.58 4.535 6.07.56 11.52-4.585 12.16-11.473.5-5.484-2.21-10.44-6.41-12.51a9.796 9.796 0 0 0-3.47-.982ZM1379.12 27.851c-6.47-3.196-14.62.052-18.17 7.24-3.56 7.19-1.18 15.64 5.29 18.835 6.47 3.196 14.62-.054 18.17-7.244 3.55-7.188 1.18-15.635-5.29-18.83ZM1360.82 14.553a10.5 10.5 0 0 0-2.73-1.954c-4.64-2.292-10.85-1.107-15.17 3.293-2.49 2.534-4 5.763-4.27 9.094-.27 3.487.84 6.666 3.14 8.952 2.3 2.287 5.47 3.371 8.92 3.056 3.31-.302 6.5-1.864 8.98-4.398 5.25-5.344 5.75-13.438 1.13-18.043ZM1335.46 4.117v.002c2.81 5.417 10.1 7.271 16.25 4.132 6.15-3.144 8.87-10.108 6.07-15.525-1.02-1.976-2.64-3.478-4.58-4.438-3.39-1.672-7.76-1.694-11.67.302-6.15 3.144-8.87 10.109-6.07 15.527Z"/></g><g opacity=".1" fill="#fff"><path d="M886.721 154.945a12.023 12.023 0 0 0-11.122 3.254 12.02 12.02 0 0 0-3.253 11.122l2.134 9.737a7.602 7.602 0 0 0 2.448 4.132 7.607 7.607 0 0 0 4.427 1.861 7.59 7.59 0 0 0 4.662-1.147 7.585 7.585 0 0 0 3.057-3.7l.04-.103a15.01 15.01 0 0 1 8.49-8.427 7.59 7.59 0 0 0 3.7-3.056 7.592 7.592 0 0 0 1.146-4.662 7.598 7.598 0 0 0-1.86-4.428 7.604 7.604 0 0 0-4.132-2.449l-9.737-2.134ZM869.47 171.895c.693-1.558.642-3.32-.145-4.961-.749-1.562-2.087-2.834-3.768-3.58-1.68-.745-3.52-.884-5.182-.393-1.746.517-3.089 1.66-3.78 3.217-1.392 3.13.363 6.96 3.914 8.539 2.829 1.254 5.955.706 7.812-1.152a5.53 5.53 0 0 0 1.149-1.67ZM872.132 159.932c2.867-2.867 2.609-7.791-.577-10.976-3.186-3.187-8.111-3.446-10.978-.579-2.867 2.867-2.608 7.792.579 10.978 3.185 3.186 8.109 3.445 10.976.577ZM882.508 152.592v-.001a5.799 5.799 0 0 0 1.532-1.101c2.057-2.056 2.546-5.575.983-8.668-.9-1.78-2.346-3.168-4.071-3.908-1.807-.775-3.699-.755-5.33.054-1.631.81-2.779 2.302-3.235 4.199-.435 1.812-.178 3.791.722 5.571 1.898 3.755 6.115 5.484 9.399 3.854ZM892.634 140.977h-.002c-3.389.519-5.69 4.064-5.128 7.904.564 3.839 3.78 6.543 7.168 6.028 1.236-.188 2.327-.778 3.188-1.639 1.5-1.5 2.299-3.822 1.943-6.265-.565-3.838-3.781-6.543-7.169-6.028Z"/></g><g opacity=".1" fill="#fff"><path d="M978.578 194.93a12.019 12.019 0 0 0-10.759-4.305 12.019 12.019 0 0 0-9.424 6.743l-4.331 8.978a7.61 7.61 0 0 0-.624 4.762 7.61 7.61 0 0 0 2.335 4.197 7.597 7.597 0 0 0 4.376 1.975 7.58 7.58 0 0 0 4.689-1.025l.095-.056a15.006 15.006 0 0 1 11.881-1.39 7.615 7.615 0 0 0 4.797-.121 7.593 7.593 0 0 0 3.78-2.961 7.598 7.598 0 0 0 1.269-4.631 7.609 7.609 0 0 0-1.739-4.478l-6.345-7.688ZM954.544 197.618c1.507-.798 2.554-2.216 2.948-3.993.375-1.691.107-3.517-.755-5.142-.862-1.623-2.224-2.868-3.835-3.507-1.693-.671-3.455-.601-4.959.198-3.028 1.603-4.011 5.7-2.192 9.134 1.452 2.733 4.25 4.231 6.858 3.916a5.556 5.556 0 0 0 1.935-.606ZM964.022 189.849c4.025-.486 6.861-4.52 6.321-8.993-.54-4.473-4.255-7.717-8.281-7.23-4.025.486-6.861 4.521-6.32 8.994.54 4.472 4.254 7.715 8.28 7.229ZM976.716 190.478l.001-.001a5.82 5.82 0 0 0 1.885.079c2.887-.348 5.444-2.815 6.123-6.213.391-1.956.11-3.941-.791-5.588-.943-1.724-2.444-2.877-4.227-3.246-1.783-.37-3.607.095-5.137 1.306-1.461 1.158-2.48 2.873-2.87 4.829-.824 4.127 1.426 8.089 5.016 8.834ZM991.852 187.589l-.001-.001c-2.988-1.684-6.986-.315-8.914 3.053-1.925 3.369-1.063 7.482 1.92 9.167 1.088.615 2.311.825 3.52.679 2.106-.255 4.168-1.588 5.395-3.73 1.925-3.369 1.064-7.482-1.92-9.168Z"/></g><g opacity=".1" fill="#fff"><path d="M855.028 62.114a12.02 12.02 0 0 0-11.587-.155 12.023 12.023 0 0 0-6.375 9.677l-.818 9.935a7.601 7.601 0 0 0 1.127 4.668 7.608 7.608 0 0 0 3.686 3.078 7.594 7.594 0 0 0 4.793.273 7.585 7.585 0 0 0 4.009-2.64l.068-.087a15.012 15.012 0 0 1 10.59-5.563 7.598 7.598 0 0 0 4.434-1.835 7.583 7.583 0 0 0 2.464-4.12 7.595 7.595 0 0 0-.478-4.78 7.6 7.6 0 0 0-3.231-3.553l-8.682-4.898ZM833.562 73.252c1.12-1.286 1.588-2.985 1.318-4.785-.258-1.713-1.163-3.321-2.551-4.528-1.388-1.205-3.106-1.879-4.839-1.897-1.821-.018-3.44.68-4.557 1.966-2.25 2.583-1.697 6.76 1.234 9.312 2.336 2.029 5.486 2.422 7.806 1.192a5.54 5.54 0 0 0 1.589-1.26ZM839.618 62.598c3.583-1.899 4.781-6.682 2.671-10.662-2.11-3.981-6.742-5.675-10.325-3.776-3.582 1.9-4.78 6.683-2.669 10.664 2.11 3.98 6.741 5.673 10.323 3.774ZM851.692 58.627a5.818 5.818 0 0 0 1.788-.604c2.57-1.362 4.07-4.582 3.484-7.997-.338-1.966-1.312-3.718-2.745-4.931-1.499-1.27-3.314-1.808-5.11-1.512-1.797.295-3.333 1.383-4.325 3.063-.948 1.605-1.284 3.572-.946 5.538.713 4.147 4.236 7.037 7.854 6.443ZM864.781 50.496h-.001c-3.393-.499-6.633 2.215-7.223 6.05-.587 3.836 1.693 7.364 5.083 7.866 1.236.184 2.453-.06 3.529-.63 1.874-.994 3.32-2.978 3.696-5.418.587-3.836-1.693-7.365-5.084-7.867Z"/></g><g opacity=".05" fill="#fff"><path d="M737.139 51.471a12.022 12.022 0 0 0-9.756 6.255 12.022 12.022 0 0 0 .011 11.588l4.791 8.742a7.602 7.602 0 0 0 3.512 3.275 7.604 7.604 0 0 0 4.773.538 7.598 7.598 0 0 0 4.15-2.413 7.584 7.584 0 0 0 1.891-4.411l.009-.11a15.008 15.008 0 0 1 5.773-10.478 7.593 7.593 0 0 0 2.689-3.974 7.589 7.589 0 0 0-.213-4.796 7.6 7.6 0 0 0-3.032-3.725 7.603 7.603 0 0 0-4.654-1.186l-9.944.695ZM725.36 72.594c.227-1.69-.319-3.367-1.537-4.72-1.158-1.288-2.8-2.13-4.623-2.373-1.822-.242-3.627.143-5.083 1.083-1.53.987-2.496 2.462-2.721 4.15-.454 3.396 2.309 6.577 6.161 7.092 3.068.406 5.912-1 7.171-3.306a5.52 5.52 0 0 0 .632-1.926ZM724.545 60.366c1.944-3.559.308-8.211-3.645-10.37-3.955-2.16-8.753-1.022-10.697 2.537-1.943 3.559-.307 8.21 3.647 10.37 3.954 2.16 8.752 1.021 10.695-2.537ZM732.433 50.4c.475-.44.862-.942 1.16-1.49 1.394-2.551.872-6.066-1.499-8.593-1.364-1.455-3.143-2.38-5.007-2.603-1.951-.234-3.761.317-5.098 1.553-1.337 1.237-2.019 2.991-1.921 4.94.093 1.862.896 3.688 2.261 5.142 2.88 3.069 7.412 3.54 10.104 1.05ZM738.878 36.403h-.002c-3.106 1.454-4.315 5.503-2.695 9.029 1.623 3.524 5.471 5.213 8.576 3.765 1.133-.528 2.014-1.402 2.598-2.47 1.017-1.862 1.13-4.315.1-6.559-1.624-3.524-5.471-5.213-8.577-3.765Z"/></g><g opacity=".05" fill="#fff"><path d="M157.228 93.392a12.021 12.021 0 0 0-2.847-11.233 12.018 12.018 0 0 0-10.996-3.656l-9.808 1.778a7.601 7.601 0 0 0-4.218 2.296 7.6 7.6 0 0 0-2.021 4.357 7.59 7.59 0 0 0 .976 4.7 7.578 7.578 0 0 0 3.586 3.19l.102.044a15.009 15.009 0 0 1 8.112 8.791 7.602 7.602 0 0 0 2.919 3.808 7.59 7.59 0 0 0 4.617 1.316 7.592 7.592 0 0 0 4.493-1.698 7.6 7.6 0 0 0 2.598-4.04l2.487-9.653ZM140.918 75.535c1.531.75 3.294.763 4.963.036 1.588-.691 2.907-1.982 3.714-3.634.806-1.652 1.012-3.486.581-5.165-.453-1.764-1.546-3.147-3.076-3.894-3.078-1.506-6.969.108-8.677 3.6-1.356 2.781-.922 5.925.867 7.849a5.531 5.531 0 0 0 1.628 1.208ZM152.775 78.631c2.761 2.97 7.692 2.89 10.991-.176 3.3-3.069 3.738-7.98.977-10.95-2.761-2.97-7.691-2.89-10.991.178s-3.738 7.979-.977 10.948ZM159.733 89.268h.001c.266.59.62 1.115 1.045 1.571 1.98 2.13 5.478 2.747 8.626 1.297 1.812-.834 3.252-2.228 4.054-3.926.839-1.776.889-3.668.139-5.328-.75-1.659-2.198-2.86-4.078-3.385-1.795-.5-3.782-.317-5.593.518-3.822 1.76-5.703 5.912-4.194 9.253ZM170.971 99.81v-.002c-.395-3.406-3.854-5.834-7.711-5.413-3.857.425-6.676 3.54-6.285 6.944.142 1.242.693 2.355 1.521 3.246 1.445 1.554 3.736 2.437 6.19 2.17 3.857-.425 6.677-3.54 6.285-6.945Z"/></g><g opacity=".05" fill="#fff"><path d="M423.959 9.03c4.759 7.43 12.864 11.867 21.682 11.867 8.817 0 16.922-4.437 21.681-11.867l11.467-17.906a16.208 16.208 0 0 0 2.539-9.923 16.218 16.218 0 0 0-3.87-9.484 16.197 16.197 0 0 0-8.76-5.302 16.175 16.175 0 0 0-10.192.97l-.216.096a32.015 32.015 0 0 1-25.514-.096 16.202 16.202 0 0 0-10.19-.97 16.188 16.188 0 0 0-8.76 5.301 16.205 16.205 0 0 0-3.873 9.484 16.22 16.22 0 0 0 2.538 9.925L423.959 9.03ZM475.542 9.485c-3.396 1.303-5.976 4.038-7.265 7.7-1.226 3.486-1.126 7.421.284 11.082 1.41 3.657 3.976 6.644 7.224 8.409 3.412 1.853 7.161 2.155 10.551.849 6.822-2.62 9.952-11.044 6.977-18.782-2.376-6.158-7.917-10.046-13.52-10.046-1.43 0-2.865.254-4.251.788ZM453.484 23.511c-8.649 0-15.686 7.818-15.686 17.426 0 9.611 7.037 17.43 15.686 17.43 8.648 0 15.684-7.819 15.684-17.43 0-9.608-7.036-17.426-15.684-17.426ZM426.763 18.933h-.001a12.433 12.433 0 0 0-3.972-.649c-6.203 0-12.248 4.57-14.555 11.592-1.328 4.042-1.241 8.316.246 12.034 1.556 3.892 4.44 6.718 8.12 7.956 3.682 1.238 7.663.721 11.211-1.453 3.39-2.078 5.988-5.449 7.315-9.491 2.8-8.527-.952-17.494-8.364-19.988ZM393.973 21.179l.003.002c5.895 4.33 14.712 2.453 19.655-4.185 4.939-6.642 4.167-15.57-1.72-19.903-2.146-1.581-4.683-2.337-7.279-2.337-4.525 0-9.232 2.296-12.379 6.518-4.938 6.642-4.167 15.57 1.72 19.905Z"/></g><g opacity=".2" fill="#fff"><path d="M1191.18-5.76a10.528 10.528 0 0 0-9.85-2.398 10.511 10.511 0 0 0-7.32 6.997l-2.64 8.305a6.625 6.625 0 0 0 .05 4.198 6.609 6.609 0 0 0 2.54 3.344 6.622 6.622 0 0 0 4.03 1.17 6.64 6.64 0 0 0 3.93-1.465l.07-.061a13.132 13.132 0 0 1 10.11-2.669 6.657 6.657 0 0 0 4.14-.696 6.666 6.666 0 0 0 3.43-7.194 6.639 6.639 0 0 0-2.05-3.66l-6.44-5.871ZM1170.71-.469c1.2-.876 1.94-2.233 2.06-3.82.11-1.51-.34-3.056-1.29-4.356-.95-1.298-2.28-2.208-3.75-2.562-1.55-.372-3.07-.094-4.27.783-2.42 1.76-2.77 5.427-.77 8.175 1.59 2.186 4.2 3.137 6.42 2.543a4.874 4.874 0 0 0 1.6-.763Z"/></g></g></svg>